<svg xmlns="http://www.w3.org/2000/svg" viewBox="0 0 87.27 115.31">
    <defs>
        <style>.cls-1{fill:#162b4d;}</style>
    </defs>
    <title>mark- jira-N800</title>
    <g id="Layer_2" data-name="Layer 2">
        <g id="Layer_1-2" data-name="Layer 1">
            <path class="cls-1" d="M18.8,6.9a7.57,7.57,0,1,0,7.56,7.57A7.56,7.56,0,0,0,18.8,6.9Z"/>
            <path class="cls-1" d="M68.47,6.9A7.57,7.57,0,1,0,76,14.47,7.55,7.55,0,0,0,68.47,6.9Z"/>
            <path class="cls-1" d="M43.63,0a7.57,7.57,0,1,0,7.56,7.57A7.56,7.56,0,0,0,43.63,0Z"/>
            <path class="cls-1"
                  d="M86.34,28a2.37,2.37,0,0,0-2.28-.33A116.6,116.6,0,0,1,69,32.21,3,3,0,0,0,66.92,34C63.46,43.48,54.63,52.5,45.37,61.95a2.43,2.43,0,0,1-1.74.82,2.4,2.4,0,0,1-1.74-.82C32.63,52.5,23.81,43.52,20.35,34a3,3,0,0,0-2.07-1.81,117,117,0,0,1-15.07-4.6,2.38,2.38,0,0,0-.85-.16A2.34,2.34,0,0,0,.93,28,2.37,2.37,0,0,0,0,30.06C.8,37.94,3.91,45.63,9.52,53.7c5.28,7.58,12.16,14.6,18.82,21.39,12.26,12.51,23.85,24.32,24.87,38a2.37,2.37,0,0,0,2.36,2.19H70a2.37,2.37,0,0,0,2.37-2.49c-.45-9.16-3.9-18.33-10.54-28-1.39-2-2.88-4-4.44-6a1.72,1.72,0,0,1,.12-2.26l1.44-1.47C65.58,68.3,72.47,61.28,77.75,53.7c5.61-8.07,8.72-15.72,9.51-23.59A2.43,2.43,0,0,0,86.34,28Z"/>
            <path class="cls-1"
                  d="M28.17,85.75A2.19,2.19,0,0,0,26.49,85a2.37,2.37,0,0,0-2,1.11c-6.06,9.22-9.19,17.93-9.62,26.67a2.38,2.38,0,0,0,2.38,2.5H31.67a2.39,2.39,0,0,0,2.37-2.2,32,32,0,0,1,4-12.88,3.34,3.34,0,0,0-.29-3.6,133.1,133.1,0,0,0-9.59-10.88Z"/>
            <path class="cls-1"
                  d="M43.65,35c4.52,0,7.13-.27,8.05-.27A2.2,2.2,0,0,1,53.88,37a2.35,2.35,0,0,1-.18.88,38.28,38.28,0,0,1-8.41,12.3,2.32,2.32,0,0,1-1.66.66h0A2.31,2.31,0,0,1,42,50.15a38.24,38.24,0,0,1-8.41-12.3,2.34,2.34,0,0,1-.18-.88,2.2,2.2,0,0,1,2.18-2.19c.92,0,3.54.27,8.05.27Z"/>
        </g>
    </g>
</svg>